<svg data-v-423bf9ae="" xmlns="http://www.w3.org/2000/svg" viewBox="0 0 385 90" class="iconLeftSlogan"><!----><!----><!----><g data-v-423bf9ae="" id="cbbf9179-1a04-4fe8-ba6e-cbb474890f7a" fill="black" transform="matrix(4.58015287181561,0,0,4.58015287181561,108.44275236709606,-14.748093093541222)"><path d="M8.61 6.10L6.09 6.10L6.09 7.07L5.60 6.27C5.22 6.05 4.49 5.91 3.88 5.91C1.96 5.91 0.34 7.35 0.34 10.01C0.34 12.22 1.60 13.78 3.63 13.78C4.38 13.78 5.11 13.62 5.53 13.31L6.09 12.49L6.09 16.32L8.61 16.32ZM4.49 12.07C3.61 12.07 2.91 11.28 2.91 9.88C2.91 8.36 3.58 7.62 4.56 7.62C5.32 7.62 6.09 8.12 6.09 9.62L6.09 9.94C6.09 11.51 5.42 12.07 4.49 12.07ZM13.20 5.91C11.21 5.91 9.93 6.83 9.93 8.32C9.93 9.59 10.78 10.25 12.21 10.58C13.54 10.89 14.01 11.16 14.01 11.63C14.01 12.03 13.66 12.21 13.22 12.21C12.68 12.21 12.24 11.83 12.10 11.26L9.62 11.26C9.81 12.94 11.20 13.78 13.23 13.78C15.04 13.78 16.53 13.03 16.53 11.44C16.53 10.00 15.57 9.41 14.21 9.07C12.78 8.72 12.45 8.44 12.45 8.02C12.45 7.70 12.70 7.48 13.05 7.48C13.50 7.48 13.75 7.77 13.86 8.29L16.34 8.29C16.14 6.93 15.06 5.91 13.20 5.91ZM21.90 13.58L24.36 13.58C24.25 12.75 24.22 12.25 24.22 11.69L24.22 9.59C24.22 9.13 24.21 8.69 24.18 8.32C24.07 6.96 23.25 5.91 20.89 5.91C19.00 5.91 17.44 6.90 17.43 8.65L19.81 8.64C19.85 7.99 20.19 7.62 20.78 7.62C21.32 7.62 21.63 7.95 21.67 8.33C21.70 8.57 21.70 8.72 21.70 8.88L21.70 8.99L21.22 8.99C18.69 8.99 17.18 9.97 17.18 11.56C17.18 13.01 18.34 13.78 19.57 13.78C20.26 13.78 20.89 13.61 21.42 13.27L21.73 12.49ZM20.61 12.07C20.10 12.07 19.75 11.82 19.75 11.37C19.75 10.63 20.57 10.33 21.70 10.42L21.70 10.91C21.70 11.69 21.11 12.07 20.61 12.07ZM28.76 7.73L30.41 7.73L30.41 6.16L28.76 6.16L28.76 4.23L26.24 4.23L26.24 6.16L25.05 6.16L25.05 7.73L26.24 7.73L26.24 10.85C26.24 11.27 26.24 11.62 26.26 12.05C26.35 13.20 26.91 13.78 28.77 13.78C29.30 13.78 29.76 13.73 30.25 13.65L30.25 12.08C29.06 12.14 28.83 11.97 28.77 11.21C28.76 11.02 28.76 10.74 28.76 10.49ZM34.76 5.91C32.56 5.91 30.83 7.35 30.83 9.93C30.83 12.39 32.45 13.78 34.59 13.78C36.62 13.78 38.12 12.77 38.40 10.84L35.92 10.84C35.78 11.65 35.31 12.07 34.73 12.07C33.88 12.07 33.40 11.37 33.40 9.77C33.40 8.33 33.87 7.62 34.71 7.62C35.34 7.62 35.83 7.98 35.94 8.96L38.37 8.96C38.30 7.28 36.96 5.91 34.76 5.91ZM46.98 7.94C46.79 6.64 45.88 5.91 44.34 5.91C43.65 5.91 43.12 6.06 42.66 6.34L41.99 7.27L41.99 3.22L39.47 3.22L39.47 13.58L41.99 13.58L41.99 10.05C41.99 8.36 42.53 7.62 43.30 7.62C44.06 7.62 44.45 8.04 44.51 8.75C44.53 9.13 44.53 9.53 44.53 9.77L44.53 13.58L47.05 13.58L47.05 9.35C47.05 8.75 47.04 8.32 46.98 7.94ZM55.80 9.74C55.80 7.81 54.54 5.91 52.05 5.91C49.56 5.91 48.06 7.69 48.06 9.87C48.06 12.50 49.77 13.78 51.91 13.78C53.83 13.78 55.23 12.82 55.66 11.13L53.19 11.13C53.09 11.70 52.65 12.07 51.94 12.07C51.23 12.07 50.68 11.72 50.55 10.47L55.76 10.47C55.79 10.22 55.80 9.97 55.80 9.74ZM51.93 7.62C52.60 7.62 53.03 8.05 53.17 8.93L50.64 8.93C50.81 8.01 51.27 7.62 51.93 7.62ZM59.36 3.29L56.84 3.29L56.84 10.93C56.84 11.49 56.84 11.87 56.87 12.26C56.92 13.26 57.58 13.72 58.74 13.72C59.30 13.72 59.75 13.69 60.21 13.65L60.21 11.94C59.56 11.97 59.43 11.87 59.39 11.58C59.36 11.40 59.36 11.24 59.36 10.89Z"></path></g><!----><g data-v-423bf9ae="" id="2f946d81-aec4-452b-8beb-bfadcda924bc" transform="matrix(2.8125,0,0,2.8125,0,0)" stroke="none" fill="black"><path d="M0 16.024L15.976 32 32 15.976 16.024 0 0 16.024zm15.989 7.323l-7.336-7.336 14.694-.022-7.358 7.358z"></path></g><!----><g data-v-423bf9ae="" id="c867dbcb-b17b-4324-bc55-a6777a52516d" fill="black" transform="matrix(0.28828948055161235,0,0,0.28828948055161235,109.89621726807594,58.35963216616434)"><path d="M4.40 6.98L3.04 10.75L5.72 10.75L4.40 6.98ZM3.08 14.40L0.36 14.40L0.39 14.11L1.36 13.90L4.35 5.82L4.72 5.73L7.55 13.95L8.46 14.08L8.40 14.39L5.61 14.39L5.67 14.10L6.80 13.90L5.85 11.13L2.90 11.13L1.89 13.95L3.14 14.08L3.08 14.40ZM29.47 14.40L26.06 14.40L26.09 14.11L27.17 13.90L27.17 6.51L26.07 6.36L26.13 6.12L26.13 6.12Q26.30 6.09 26.75 6.02L26.75 6.02L26.75 6.02Q27.19 5.94 27.42 5.91L27.42 5.91L27.42 5.91Q27.65 5.88 28.06 5.84L28.06 5.84L28.06 5.84Q28.47 5.81 28.89 5.81L28.89 5.81L28.89 5.81Q29.58 5.81 30.17 5.96L30.17 5.96L30.17 5.96Q30.75 6.10 31.22 6.40L31.22 6.40L31.22 6.40Q31.68 6.69 31.94 7.18L31.94 7.18L31.94 7.18Q32.20 7.66 32.20 8.29L32.20 8.29L32.20 8.29Q32.20 8.90 31.92 9.43L31.92 9.43L31.92 9.43Q31.64 9.97 31.18 10.33L31.18 10.33L31.18 10.33Q30.71 10.69 30.11 10.90L30.11 10.90L30.11 10.90Q29.51 11.10 28.88 11.10L28.88 11.10L28.88 11.10Q28.60 11.10 28.53 11.09L28.53 11.09L28.46 10.80L28.83 10.78L28.83 10.78Q29.50 10.75 29.99 10.55L29.99 10.55L29.99 10.55Q30.49 10.36 30.78 10.03L30.78 10.03L30.78 10.03Q31.07 9.70 31.21 9.30L31.21 9.30L31.21 9.30Q31.35 8.90 31.35 8.43L31.35 8.43L31.35 8.43Q31.35 7.98 31.18 7.57L31.18 7.57L31.18 7.57Q31.01 7.16 30.69 6.83L30.69 6.83L30.69 6.83Q30.37 6.50 29.85 6.31L29.85 6.31L29.85 6.31Q29.33 6.11 28.68 6.11L28.68 6.11L27.92 6.15L27.92 13.95L29.52 14.08L29.47 14.40ZM40.67 9.75L40.67 9.75L40.67 9.75Q40.67 11.03 41.03 12.01L41.03 12.01L41.03 12.01Q41.39 13.00 42.11 13.57L42.11 13.57L42.11 13.57Q42.83 14.14 43.80 14.14L43.80 14.14L43.80 14.14Q44.38 14.14 44.87 13.92L44.87 13.92L44.87 13.92Q45.36 13.70 45.71 13.33L45.71 13.33L45.71 13.33Q46.05 12.96 46.30 12.49L46.30 12.49L46.30 12.49Q46.54 12.01 46.66 11.50L46.66 11.50L46.66 11.50Q46.77 10.99 46.77 10.48L46.77 10.48L46.77 10.48Q46.77 8.50 45.92 7.29L45.92 7.29L45.92 7.29Q45.07 6.07 43.62 6.07L43.62 6.07L43.62 6.07Q43.04 6.07 42.55 6.28L42.55 6.28L42.55 6.28Q42.05 6.49 41.71 6.85L41.71 6.85L41.71 6.85Q41.37 7.21 41.13 7.69L41.13 7.69L41.13 7.69Q40.89 8.16 40.78 8.69L40.78 8.69L40.78 8.69Q40.67 9.21 40.67 9.75ZM39.92 10.16L39.92 10.16L39.92 10.16Q39.92 8.16 41.01 6.92L41.01 6.92L41.01 6.92Q42.11 5.69 43.95 5.69L43.95 5.69L43.95 5.69Q45.08 5.69 45.90 6.27L45.90 6.27L45.90 6.27Q46.72 6.86 47.11 7.84L47.11 7.84L47.11 7.84Q47.51 8.83 47.51 10.11L47.51 10.11L47.51 10.11Q47.51 10.75 47.36 11.38L47.36 11.38L47.36 11.38Q47.21 12.00 46.88 12.58L46.88 12.58L46.88 12.58Q46.56 13.17 46.10 13.61L46.10 13.61L46.10 13.61Q45.64 14.05 44.96 14.32L44.96 14.32L44.96 14.32Q44.28 14.58 43.48 14.58L43.48 14.58L43.48 14.58Q42.42 14.58 41.60 13.98L41.60 13.98L41.60 13.98Q40.78 13.37 40.35 12.37L40.35 12.37L40.35 12.37Q39.92 11.37 39.92 10.16ZM56.04 6.34L55.21 6.15L55.25 5.89L57.94 5.89L57.92 6.11L56.79 6.32L58.75 13.18L60.79 6.18L61.11 6.14L63.04 13.18L65.26 6.36L63.98 6.13L64.01 5.89L66.63 5.89L66.61 6.14L65.80 6.34L63.11 14.49L62.67 14.57L60.83 7.63L58.82 14.49L58.33 14.57L56.04 6.34ZM75.55 6.36L74.33 6.18L74.38 5.89L80.57 5.89L80.36 8.07L80.04 8.03L79.91 6.24L76.26 6.24L76.26 9.89L78.55 9.89L78.80 8.94L79.17 8.89L78.95 11.55L78.60 11.61L78.49 10.26L76.26 10.26L76.26 14.03L80.10 14.03L80.61 12.19L80.89 12.26L80.68 14.40L74.35 14.40L74.39 14.11L75.55 13.90L75.55 6.36ZM90.42 6.18L90.42 10.11L91.97 10.11L91.97 10.11Q92.65 9.86 93.11 9.28L93.11 9.28L93.11 9.28Q93.57 8.70 93.57 8.02L93.57 8.02L93.57 8.02Q93.57 7.11 92.95 6.63L92.95 6.63L92.95 6.63Q92.33 6.15 91.25 6.15L91.25 6.15L90.42 6.18ZM91.79 14.40L88.60 14.40L88.65 14.11L89.71 13.90L89.71 6.51L88.62 6.37L88.68 6.13L88.68 6.13Q90.51 5.83 91.59 5.83L91.59 5.83L91.59 5.83Q92.35 5.83 92.96 6.05L92.96 6.05L92.96 6.05Q93.57 6.27 93.95 6.73L93.95 6.73L93.95 6.73Q94.32 7.19 94.32 7.83L94.32 7.83L94.32 7.83Q94.32 8.57 93.90 9.14L93.90 9.14L93.90 9.14Q93.47 9.72 92.44 10.23L92.44 10.23L92.44 10.23L93.75 12.19L93.75 12.19Q94.47 13.23 94.81 13.58L94.81 13.58L94.81 13.58Q95.16 13.92 95.54 14.05L95.54 14.05L95.87 14.16L95.83 14.42L95.83 14.42Q95.53 14.52 95.19 14.52L95.19 14.52L95.19 14.52Q94.90 14.52 94.65 14.40L94.65 14.40L94.65 14.40Q94.40 14.28 94.15 14.01L94.15 14.01L94.15 14.01Q93.91 13.75 93.73 13.48L93.73 13.48L93.73 13.48Q93.54 13.22 93.27 12.77L93.27 12.77L91.88 10.49L90.42 10.49L90.42 13.95L91.86 14.08L91.79 14.40ZM104.77 6.36L103.56 6.18L103.61 5.89L109.80 5.89L109.57 8.09L109.24 8.04L109.09 6.24L105.47 6.24L105.47 10.07L107.75 10.07L108.01 9.11L108.40 9.06L108.19 11.72L107.81 11.77L107.69 10.43L105.47 10.43L105.47 13.92L107.15 14.03L107.07 14.40L103.58 14.40L103.61 14.11L104.77 13.90L104.77 6.36ZM118.72 6.33L117.48 6.16L117.51 5.89L120.61 5.89L120.59 6.16L119.43 6.32L119.43 11.01L119.43 11.01Q119.43 11.87 119.61 12.49L119.61 12.49L119.61 12.49Q119.79 13.10 120.14 13.45L120.14 13.45L120.14 13.45Q120.49 13.79 120.94 13.95L120.94 13.95L120.94 13.95Q121.39 14.11 121.97 14.11L121.97 14.11L121.97 14.11Q123.15 14.11 123.79 13.40L123.79 13.40L123.79 13.40Q124.43 12.68 124.43 11.33L124.43 11.33L124.43 6.33L123.16 6.16L123.20 5.89L126.10 5.89L126.05 6.16L124.91 6.32L124.89 11.05L124.89 11.05Q124.89 12.78 124.15 13.68L124.15 13.68L124.15 13.68Q123.41 14.58 121.75 14.58L121.75 14.58L121.75 14.58Q121.25 14.58 120.83 14.49L120.83 14.49L120.83 14.49Q120.40 14.40 120.00 14.16L120.00 14.16L120.00 14.16Q119.61 13.93 119.33 13.56L119.33 13.56L119.33 13.56Q119.05 13.19 118.89 12.60L118.89 12.60L118.89 12.60Q118.72 12.01 118.72 11.24L118.72 11.24L118.72 6.33ZM139.95 14.40L133.80 14.40L133.83 14.11L134.99 13.90L134.99 6.34L133.81 6.17L133.84 5.90L136.95 5.90L136.92 6.17L135.72 6.32L135.72 14.03L139.34 14.03L139.87 12.09L140.17 12.14L139.95 14.40ZM158.96 6.33L157.78 6.16L157.82 5.89L160.95 5.89L160.90 6.16L159.70 6.32L159.70 13.95L161.02 14.08L160.96 14.40L157.85 14.40L157.88 14.11L158.96 13.90L158.96 6.33ZM169.98 6.36L168.71 6.14L168.77 5.89L170.84 5.89L175.56 13.17L175.56 6.33L174.31 6.16L174.35 5.89L177.25 5.89L177.19 6.16L176.06 6.32L176.06 14.44L175.69 14.52L170.48 6.65L170.48 13.95L171.74 14.08L171.67 14.40L168.79 14.40L168.83 14.11L169.98 13.90L169.98 6.36ZM184.94 13.60L184.94 13.60L185.14 11.66L185.47 11.71L185.66 13.21L185.66 13.21Q185.89 13.64 186.42 13.89L186.42 13.89L186.42 13.89Q186.95 14.14 187.55 14.14L187.55 14.14L187.55 14.14Q188.23 14.14 188.71 13.74L188.71 13.74L188.71 13.74Q189.19 13.33 189.19 12.61L189.19 12.61L189.19 12.61Q189.19 12.20 188.98 11.83L188.98 11.83L188.98 11.83Q188.76 11.46 188.42 11.18L188.42 11.18L188.42 11.18Q188.07 10.90 187.65 10.63L187.65 10.63L187.65 10.63Q187.23 10.36 186.81 10.07L186.81 10.07L186.81 10.07Q186.40 9.79 186.05 9.48L186.05 9.48L186.05 9.48Q185.71 9.17 185.49 8.75L185.49 8.75L185.49 8.75Q185.27 8.33 185.27 7.84L185.27 7.84L185.27 7.84Q185.27 6.88 185.97 6.29L185.97 6.29L185.97 6.29Q186.66 5.71 187.54 5.71L187.54 5.71L187.54 5.71Q188.13 5.71 188.67 5.90L188.67 5.90L188.67 5.90Q189.21 6.09 189.54 6.46L189.54 6.46L189.31 8.58L189 8.53L188.82 6.87L188.82 6.87Q188.63 6.54 188.21 6.32L188.21 6.32L188.21 6.32Q187.80 6.10 187.37 6.10L187.37 6.10L187.37 6.10Q186.77 6.10 186.36 6.48L186.36 6.48L186.36 6.48Q185.94 6.87 185.94 7.52L185.94 7.52L185.94 7.52Q185.94 7.96 186.17 8.35L186.17 8.35L186.17 8.35Q186.39 8.74 186.74 9.03L186.74 9.03L186.74 9.03Q187.09 9.32 187.52 9.61L187.52 9.61L187.52 9.61Q187.94 9.89 188.37 10.17L188.37 10.17L188.37 10.17Q188.79 10.45 189.15 10.75L189.15 10.75L189.15 10.75Q189.50 11.05 189.72 11.45L189.72 11.45L189.72 11.45Q189.94 11.85 189.94 12.29L189.94 12.29L189.94 12.29Q189.94 13.28 189.19 13.93L189.19 13.93L189.19 13.93Q188.44 14.57 187.20 14.57L187.20 14.57L187.20 14.57Q186.48 14.57 185.88 14.30L185.88 14.30L185.88 14.30Q185.28 14.03 184.94 13.60ZM197.72 8.09L197.65 5.89L204.72 5.89L204.48 8.16L204.13 8.12L204.02 6.24L201.48 6.24L201.48 13.90L202.69 14.08L202.62 14.40L199.52 14.40L199.55 14.11L200.75 13.90L200.75 6.24L198.32 6.24L198.08 8.15L197.72 8.09ZM214.25 6.18L214.25 10.11L215.80 10.11L215.80 10.11Q216.48 9.86 216.94 9.28L216.94 9.28L216.94 9.28Q217.40 8.70 217.40 8.02L217.40 8.02L217.40 8.02Q217.40 7.11 216.78 6.63L216.78 6.63L216.78 6.63Q216.16 6.15 215.07 6.15L215.07 6.15L214.25 6.18ZM215.62 14.40L212.43 14.40L212.47 14.11L213.54 13.90L213.54 6.51L212.45 6.37L212.51 6.13L212.51 6.13Q214.33 5.83 215.41 5.83L215.41 5.83L215.41 5.83Q216.18 5.83 216.79 6.05L216.79 6.05L216.79 6.05Q217.40 6.27 217.77 6.73L217.77 6.73L217.77 6.73Q218.15 7.19 218.15 7.83L218.15 7.83L218.15 7.83Q218.15 8.57 217.72 9.14L217.72 9.14L217.72 9.14Q217.29 9.72 216.26 10.23L216.26 10.23L216.26 10.23L217.58 12.19L217.58 12.19Q218.29 13.23 218.64 13.58L218.64 13.58L218.64 13.58Q218.98 13.92 219.37 14.05L219.37 14.05L219.69 14.16L219.65 14.42L219.65 14.42Q219.36 14.52 219.02 14.52L219.02 14.52L219.02 14.52Q218.73 14.52 218.48 14.40L218.48 14.40L218.48 14.40Q218.22 14.28 217.98 14.01L217.98 14.01L217.98 14.01Q217.74 13.75 217.55 13.48L217.55 13.48L217.55 13.48Q217.37 13.22 217.10 12.77L217.10 12.77L215.71 10.49L214.25 10.49L214.25 13.95L215.69 14.08L215.62 14.40ZM228.59 6.33L227.36 6.16L227.38 5.89L230.49 5.89L230.46 6.16L229.30 6.32L229.30 11.01L229.30 11.01Q229.30 11.87 229.49 12.49L229.49 12.49L229.49 12.49Q229.67 13.10 230.02 13.45L230.02 13.45L230.02 13.45Q230.36 13.79 230.81 13.95L230.81 13.95L230.81 13.95Q231.26 14.11 231.85 14.11L231.85 14.11L231.85 14.11Q233.02 14.11 233.67 13.40L233.67 13.40L233.67 13.40Q234.31 12.68 234.31 11.33L234.31 11.33L234.31 6.33L233.04 6.16L233.07 5.89L235.98 5.89L235.92 6.16L234.79 6.32L234.77 11.05L234.77 11.05Q234.76 12.78 234.02 13.68L234.02 13.68L234.02 13.68Q233.28 14.58 231.62 14.58L231.62 14.58L231.62 14.58Q231.12 14.58 230.70 14.49L230.70 14.49L230.70 14.49Q230.28 14.40 229.88 14.16L229.88 14.16L229.88 14.16Q229.48 13.93 229.21 13.56L229.21 13.56L229.21 13.56Q228.93 13.19 228.76 12.60L228.76 12.60L228.76 12.60Q228.59 12.01 228.59 11.24L228.59 11.24L228.59 6.33ZM246.46 14.40L243.63 14.40L243.67 14.17L244.81 13.96L245.38 6.36L244.12 6.14L244.17 5.89L246.35 5.89L246.83 7.18L248.98 12.84L251.43 6.88L251.84 5.89L254.07 5.89L254.04 6.14L252.86 6.34L253.24 14.01L254.47 14.12L254.45 14.40L251.30 14.40L251.34 14.17L252.51 13.96L252.12 6.41L248.94 13.99L248.60 14.05L245.81 6.53L245.27 14.01L246.50 14.12L246.46 14.40ZM263.39 6.36L262.17 6.18L262.21 5.89L268.41 5.89L268.19 8.07L267.88 8.03L267.75 6.24L264.10 6.24L264.10 9.89L266.39 9.89L266.64 8.94L267.01 8.89L266.79 11.55L266.44 11.61L266.33 10.26L264.10 10.26L264.10 14.03L267.94 14.03L268.45 12.19L268.73 12.26L268.52 14.40L262.19 14.40L262.23 14.11L263.39 13.90L263.39 6.36ZM277.68 6.36L276.42 6.14L276.47 5.89L278.54 5.89L283.27 13.17L283.27 6.33L282.02 6.16L282.06 5.89L284.96 5.89L284.90 6.16L283.77 6.32L283.77 14.44L283.40 14.52L278.19 6.65L278.19 13.95L279.45 14.08L279.38 14.40L276.50 14.40L276.54 14.11L277.68 13.90L277.68 6.36ZM292.70 8.09L292.63 5.89L299.69 5.89L299.46 8.16L299.11 8.12L299.00 6.24L296.46 6.24L296.46 13.90L297.67 14.08L297.60 14.40L294.50 14.40L294.53 14.11L295.73 13.90L295.73 6.24L293.30 6.24L293.06 8.15L292.70 8.09ZM317.38 8.09L317.31 5.89L324.37 5.89L324.13 8.16L323.79 8.12L323.67 6.24L321.14 6.24L321.14 13.90L322.35 14.08L322.27 14.40L319.18 14.40L319.21 14.11L320.41 13.90L320.41 6.24L317.97 6.24L317.73 8.15L317.38 8.09ZM332.86 9.75L332.86 9.75L332.86 9.75Q332.86 11.03 333.22 12.01L333.22 12.01L333.22 12.01Q333.59 13.00 334.30 13.57L334.30 13.57L334.30 13.57Q335.02 14.14 336 14.14L336 14.14L336 14.14Q336.57 14.14 337.07 13.92L337.07 13.92L337.07 13.92Q337.56 13.70 337.90 13.33L337.90 13.33L337.90 13.33Q338.25 12.96 338.49 12.49L338.49 12.49L338.49 12.49Q338.73 12.01 338.85 11.50L338.85 11.50L338.85 11.50Q338.97 10.99 338.97 10.48L338.97 10.48L338.97 10.48Q338.97 8.50 338.12 7.29L338.12 7.29L338.12 7.29Q337.26 6.07 335.82 6.07L335.82 6.07L335.82 6.07Q335.23 6.07 334.74 6.28L334.74 6.28L334.74 6.28Q334.25 6.49 333.91 6.85L333.91 6.85L333.91 6.85Q333.57 7.21 333.33 7.69L333.33 7.69L333.33 7.69Q333.09 8.16 332.98 8.69L332.98 8.69L332.98 8.69Q332.86 9.21 332.86 9.75ZM332.11 10.16L332.11 10.16L332.11 10.16Q332.11 8.16 333.21 6.92L333.21 6.92L333.21 6.92Q334.30 5.69 336.14 5.69L336.14 5.69L336.14 5.69Q337.28 5.69 338.10 6.27L338.10 6.27L338.10 6.27Q338.91 6.86 339.31 7.84L339.31 7.84L339.31 7.84Q339.71 8.83 339.71 10.11L339.71 10.11L339.71 10.11Q339.71 10.75 339.55 11.38L339.55 11.38L339.55 11.38Q339.40 12.00 339.08 12.58L339.08 12.58L339.08 12.58Q338.75 13.17 338.29 13.61L338.29 13.61L338.29 13.61Q337.83 14.05 337.16 14.32L337.16 14.32L337.16 14.32Q336.48 14.58 335.67 14.58L335.67 14.58L335.67 14.58Q334.62 14.58 333.80 13.98L333.80 13.98L333.80 13.98Q332.97 13.37 332.54 12.37L332.54 12.37L332.54 12.37Q332.11 11.37 332.11 10.16ZM361.40 6.98L360.04 10.75L362.72 10.75L361.40 6.98ZM360.08 14.40L357.36 14.40L357.39 14.11L358.36 13.90L361.35 5.82L361.72 5.73L364.55 13.95L365.46 14.08L365.40 14.39L362.61 14.39L362.67 14.10L363.80 13.90L362.85 11.13L359.90 11.13L358.89 13.95L360.14 14.08L360.08 14.40ZM375.04 6.19L375.04 14.03L376.27 14.03L376.27 14.03Q378.08 14.03 379.17 12.95L379.17 12.95L379.17 12.95Q380.27 11.87 380.27 10.12L380.27 10.12L380.27 10.12Q380.27 8.20 379.22 7.18L379.22 7.18L379.22 7.18Q378.16 6.16 376.23 6.16L376.23 6.16L376.23 6.16Q375.23 6.16 375.04 6.19L375.04 6.19ZM376.09 14.40L373.14 14.40L373.19 14.11L374.35 13.90L374.35 6.51L373.17 6.36L373.24 6.12L373.24 6.12Q375.33 5.79 376.48 5.79L376.48 5.79L376.48 5.79Q377.45 5.79 378.22 6.03L378.22 6.03L378.22 6.03Q379.00 6.26 379.51 6.66L379.51 6.66L379.51 6.66Q380.02 7.05 380.37 7.59L380.37 7.59L380.37 7.59Q380.71 8.13 380.86 8.71L380.86 8.71L380.86 8.71Q381.01 9.29 381.01 9.92L381.01 9.92L381.01 9.92Q381.01 10.64 380.84 11.28L380.84 11.28L380.84 11.28Q380.67 11.93 380.28 12.50L380.28 12.50L380.28 12.50Q379.90 13.08 379.34 13.49L379.34 13.49L379.34 13.49Q378.77 13.91 377.94 14.15L377.94 14.15L377.94 14.15Q377.11 14.40 376.09 14.40L376.09 14.40ZM390.62 6.19L390.62 14.03L391.85 14.03L391.85 14.03Q393.65 14.03 394.75 12.95L394.75 12.95L394.75 12.95Q395.85 11.87 395.85 10.12L395.85 10.12L395.85 10.12Q395.85 8.20 394.80 7.18L394.80 7.18L394.80 7.18Q393.74 6.16 391.81 6.16L391.81 6.16L391.81 6.16Q390.81 6.16 390.62 6.19L390.62 6.19ZM391.67 14.40L388.72 14.40L388.77 14.11L389.93 13.90L389.93 6.51L388.75 6.36L388.82 6.12L388.82 6.12Q390.91 5.79 392.06 5.79L392.06 5.79L392.06 5.79Q393.03 5.79 393.80 6.03L393.80 6.03L393.80 6.03Q394.58 6.26 395.09 6.66L395.09 6.66L395.09 6.66Q395.60 7.05 395.94 7.59L395.94 7.59L395.94 7.59Q396.29 8.13 396.44 8.71L396.44 8.71L396.44 8.71Q396.59 9.29 396.59 9.92L396.59 9.92L396.59 9.92Q396.59 10.64 396.42 11.28L396.42 11.28L396.42 11.28Q396.25 11.93 395.86 12.50L395.86 12.50L395.86 12.50Q395.48 13.08 394.92 13.49L394.92 13.49L394.92 13.49Q394.35 13.91 393.52 14.15L393.52 14.15L393.52 14.15Q392.69 14.40 391.67 14.40L391.67 14.40ZM414.28 8.09L414.21 5.89L421.27 5.89L421.03 8.16L420.69 8.12L420.57 6.24L418.04 6.24L418.04 13.90L419.25 14.08L419.17 14.40L416.08 14.40L416.11 14.11L417.31 13.90L417.31 6.24L414.87 6.24L414.63 8.15L414.28 8.09ZM429.76 9.75L429.76 9.75L429.76 9.75Q429.76 11.03 430.12 12.01L430.12 12.01L430.12 12.01Q430.49 13.00 431.20 13.57L431.20 13.57L431.20 13.57Q431.92 14.14 432.90 14.14L432.90 14.14L432.90 14.14Q433.47 14.14 433.97 13.92L433.97 13.92L433.97 13.92Q434.46 13.70 434.80 13.33L434.80 13.33L434.80 13.33Q435.15 12.96 435.39 12.49L435.39 12.49L435.39 12.49Q435.63 12.01 435.75 11.50L435.75 11.50L435.75 11.50Q435.87 10.99 435.87 10.48L435.87 10.48L435.87 10.48Q435.87 8.50 435.02 7.29L435.02 7.29L435.02 7.29Q434.16 6.07 432.71 6.07L432.71 6.07L432.71 6.07Q432.13 6.07 431.64 6.28L431.64 6.28L431.64 6.28Q431.15 6.49 430.81 6.85L430.81 6.85L430.81 6.85Q430.47 7.21 430.23 7.69L430.23 7.69L430.23 7.69Q429.99 8.16 429.87 8.69L429.87 8.69L429.87 8.69Q429.76 9.21 429.76 9.75ZM429.01 10.16L429.01 10.16L429.01 10.16Q429.01 8.16 430.11 6.92L430.11 6.92L430.11 6.92Q431.20 5.69 433.04 5.69L433.04 5.69L433.04 5.69Q434.18 5.69 434.99 6.27L434.99 6.27L434.99 6.27Q435.81 6.86 436.21 7.84L436.21 7.84L436.21 7.84Q436.60 8.83 436.60 10.11L436.60 10.11L436.60 10.11Q436.60 10.75 436.45 11.38L436.45 11.38L436.45 11.38Q436.30 12.00 435.98 12.58L435.98 12.58L435.98 12.58Q435.65 13.17 435.19 13.61L435.19 13.61L435.19 13.61Q434.73 14.05 434.05 14.32L434.05 14.32L434.05 14.32Q433.38 14.58 432.57 14.58L432.57 14.58L432.57 14.58Q431.52 14.58 430.69 13.98L430.69 13.98L430.69 13.98Q429.87 13.37 429.44 12.37L429.44 12.37L429.44 12.37Q429.01 11.37 429.01 10.16ZM455.18 6.35L454.23 6.15L454.25 5.90L457.11 5.90L457.08 6.15L455.94 6.32L458.08 10.49L460.20 6.34L458.94 6.14L458.95 5.89L461.62 5.89L461.60 6.14L460.71 6.32L458.33 11.05L458.33 13.94L459.57 14.08L459.51 14.40L456.37 14.40L456.41 14.11L457.60 13.90L457.60 11.05L455.18 6.35ZM470.10 9.75L470.10 9.75L470.10 9.75Q470.10 11.03 470.46 12.01L470.46 12.01L470.46 12.01Q470.83 13.00 471.54 13.57L471.54 13.57L471.54 13.57Q472.26 14.14 473.24 14.14L473.24 14.14L473.24 14.14Q473.81 14.14 474.30 13.92L474.30 13.92L474.30 13.92Q474.80 13.70 475.14 13.33L475.14 13.33L475.14 13.33Q475.49 12.96 475.73 12.49L475.73 12.49L475.73 12.49Q475.97 12.01 476.09 11.50L476.09 11.50L476.09 11.50Q476.21 10.99 476.21 10.48L476.21 10.48L476.21 10.48Q476.21 8.50 475.35 7.29L475.35 7.29L475.35 7.29Q474.50 6.07 473.05 6.07L473.05 6.07L473.05 6.07Q472.47 6.07 471.98 6.28L471.98 6.28L471.98 6.28Q471.49 6.49 471.15 6.85L471.15 6.85L471.15 6.85Q470.80 7.21 470.57 7.69L470.57 7.69L470.57 7.69Q470.33 8.16 470.21 8.69L470.21 8.69L470.21 8.69Q470.10 9.21 470.10 9.75ZM469.35 10.16L469.35 10.16L469.35 10.16Q469.35 8.16 470.45 6.92L470.45 6.92L470.45 6.92Q471.54 5.69 473.38 5.69L473.38 5.69L473.38 5.69Q474.52 5.69 475.33 6.27L475.33 6.27L475.33 6.27Q476.15 6.86 476.55 7.84L476.55 7.84L476.55 7.84Q476.94 8.83 476.94 10.11L476.94 10.11L476.94 10.11Q476.94 10.75 476.79 11.38L476.79 11.38L476.79 11.38Q476.64 12.00 476.32 12.58L476.32 12.58L476.32 12.58Q475.99 13.17 475.53 13.61L475.53 13.61L475.53 13.61Q475.07 14.05 474.39 14.32L474.39 14.32L474.39 14.32Q473.72 14.58 472.91 14.58L472.91 14.58L472.91 14.58Q471.86 14.58 471.03 13.98L471.03 13.98L471.03 13.98Q470.21 13.37 469.78 12.37L469.78 12.37L469.78 12.37Q469.35 11.37 469.35 10.16ZM485.88 6.33L484.64 6.16L484.67 5.89L487.77 5.89L487.74 6.16L486.59 6.32L486.59 11.01L486.59 11.01Q486.59 11.87 486.77 12.49L486.77 12.49L486.77 12.49Q486.95 13.10 487.30 13.45L487.30 13.45L487.30 13.45Q487.65 13.79 488.10 13.95L488.10 13.95L488.10 13.95Q488.54 14.11 489.13 14.11L489.13 14.11L489.13 14.11Q490.31 14.11 490.95 13.40L490.95 13.40L490.95 13.40Q491.59 12.68 491.59 11.33L491.59 11.33L491.59 6.33L490.32 6.16L490.36 5.89L493.26 5.89L493.21 6.16L492.07 6.32L492.05 11.05L492.05 11.05Q492.04 12.78 491.31 13.68L491.31 13.68L491.31 13.68Q490.57 14.58 488.91 14.58L488.91 14.58L488.91 14.58Q488.41 14.58 487.98 14.49L487.98 14.49L487.98 14.49Q487.56 14.40 487.16 14.16L487.16 14.16L487.16 14.16Q486.77 13.93 486.49 13.56L486.49 13.56L486.49 13.56Q486.21 13.19 486.05 12.60L486.05 12.60L486.05 12.60Q485.88 12.01 485.88 11.24L485.88 11.24L485.88 6.33ZM502.76 6.18L502.76 10.11L504.31 10.11L504.31 10.11Q505.00 9.86 505.46 9.28L505.46 9.28L505.46 9.28Q505.91 8.70 505.91 8.02L505.91 8.02L505.91 8.02Q505.91 7.11 505.30 6.63L505.30 6.63L505.30 6.63Q504.68 6.15 503.59 6.15L503.59 6.15L502.76 6.18ZM504.14 14.40L500.94 14.40L500.99 14.11L502.06 13.90L502.06 6.51L500.96 6.37L501.03 6.13L501.03 6.13Q502.85 5.83 503.93 5.83L503.93 5.83L503.93 5.83Q504.70 5.83 505.31 6.05L505.31 6.05L505.31 6.05Q505.91 6.27 506.29 6.73L506.29 6.73L506.29 6.73Q506.67 7.19 506.67 7.83L506.67 7.83L506.67 7.83Q506.67 8.57 506.24 9.14L506.24 9.14L506.24 9.14Q505.81 9.72 504.78 10.23L504.78 10.23L504.78 10.23L506.10 12.19L506.10 12.19Q506.81 13.23 507.15 13.58L507.15 13.58L507.15 13.58Q507.50 13.92 507.88 14.05L507.88 14.05L508.21 14.16L508.17 14.42L508.17 14.42Q507.88 14.52 507.53 14.52L507.53 14.52L507.53 14.52Q507.25 14.52 506.99 14.40L506.99 14.40L506.99 14.40Q506.74 14.28 506.50 14.01L506.50 14.01L506.50 14.01Q506.26 13.75 506.07 13.48L506.07 13.48L506.07 13.48Q505.89 13.22 505.61 12.77L505.61 12.77L504.23 10.49L502.76 10.49L502.76 13.95L504.21 14.08L504.14 14.40ZM527.02 6.36L525.81 6.18L525.86 5.89L532.05 5.89L531.83 8.09L531.49 8.04L531.35 6.24L527.73 6.24L527.73 10.07L530.00 10.07L530.27 9.11L530.65 9.06L530.44 11.72L530.07 11.77L529.94 10.43L527.73 10.43L527.73 13.92L529.41 14.03L529.33 14.40L525.84 14.40L525.86 14.11L527.02 13.90L527.02 6.36ZM540.93 6.33L539.75 6.16L539.79 5.89L542.91 5.89L542.86 6.16L541.67 6.32L541.67 13.95L542.99 14.08L542.92 14.40L539.81 14.40L539.85 14.11L540.93 13.90L540.93 6.33ZM551.94 6.36L550.68 6.14L550.73 5.89L552.80 5.89L557.53 13.17L557.53 6.33L556.27 6.16L556.32 5.89L559.21 5.89L559.16 6.16L558.02 6.32L558.02 14.44L557.66 14.52L552.45 6.65L552.45 13.95L553.70 14.08L553.64 14.40L550.76 14.40L550.80 14.11L551.94 13.90L551.94 6.36ZM570.96 6.98L569.59 10.75L572.28 10.75L570.96 6.98ZM569.64 14.40L566.91 14.40L566.95 14.11L567.92 13.90L570.91 5.82L571.27 5.73L574.11 13.95L575.01 14.08L574.96 14.39L572.16 14.39L572.22 14.10L573.36 13.90L572.41 11.13L569.45 11.13L568.44 13.95L569.70 14.08L569.64 14.40ZM583.95 6.36L582.68 6.14L582.74 5.89L584.81 5.89L589.53 13.17L589.53 6.33L588.28 6.16L588.32 5.89L591.22 5.89L591.17 6.16L590.03 6.32L590.03 14.44L589.66 14.52L584.45 6.65L584.45 13.95L585.71 14.08L585.64 14.40L582.76 14.40L582.80 14.11L583.95 13.90L583.95 6.36ZM598.93 10.25L598.93 10.25L598.93 10.25Q598.93 9.73 599.04 9.21L599.04 9.21L599.04 9.21Q599.14 8.68 599.34 8.17L599.34 8.17L599.34 8.17Q599.55 7.66 599.87 7.22L599.87 7.22L599.87 7.22Q600.20 6.77 600.62 6.44L600.62 6.44L600.62 6.44Q601.03 6.10 601.59 5.90L601.59 5.90L601.59 5.90Q602.14 5.71 602.78 5.71L602.78 5.71L602.78 5.71Q604.19 5.71 605.10 6.39L605.10 6.39L604.89 8.70L604.57 8.64L604.37 6.87L604.37 6.87Q603.77 6.09 602.46 6.09L602.46 6.09L602.46 6.09Q601.31 6.09 600.48 7.19L600.48 7.19L600.48 7.19Q599.66 8.30 599.66 10.00L599.66 10.00L599.66 10.00Q599.66 11.92 600.46 12.97L600.46 12.97L600.46 12.97Q601.26 14.03 602.74 14.03L602.74 14.03L602.74 14.03Q603.47 14.03 604.16 13.65L604.16 13.65L604.16 13.65Q604.85 13.28 605.32 12.74L605.32 12.74L605.48 12.99L605.48 12.99Q605.31 13.25 605.02 13.51L605.02 13.51L605.02 13.51Q604.73 13.77 604.35 14.02L604.35 14.02L604.35 14.02Q603.96 14.27 603.46 14.42L603.46 14.42L603.46 14.42Q602.95 14.57 602.42 14.57L602.42 14.57L602.42 14.57Q600.85 14.57 599.89 13.40L599.89 13.40L599.89 13.40Q598.93 12.22 598.93 10.25ZM614.32 6.33L613.14 6.16L613.18 5.89L616.30 5.89L616.25 6.16L615.06 6.32L615.06 13.95L616.38 14.08L616.31 14.40L613.20 14.40L613.24 14.11L614.32 13.90L614.32 6.33ZM628.15 6.98L626.78 10.75L629.47 10.75L628.15 6.98ZM626.83 14.40L624.10 14.40L624.13 14.11L625.11 13.90L628.10 5.82L628.46 5.73L631.30 13.95L632.20 14.08L632.15 14.39L629.35 14.39L629.41 14.10L630.55 13.90L629.60 11.13L626.64 11.13L625.63 13.95L626.89 14.08L626.83 14.40ZM646.06 14.40L639.91 14.40L639.94 14.11L641.09 13.90L641.09 6.34L639.92 6.17L639.95 5.90L643.06 5.90L643.03 6.17L641.83 6.32L641.83 14.03L645.45 14.03L645.98 12.09L646.28 12.14L646.06 14.40ZM663.97 8.09L663.90 5.89L670.96 5.89L670.72 8.16L670.38 8.12L670.26 6.24L667.73 6.24L667.73 13.90L668.94 14.08L668.86 14.40L665.77 14.40L665.80 14.11L667.00 13.90L667.00 6.24L664.56 6.24L664.32 8.15L663.97 8.09ZM679.45 9.75L679.45 9.75L679.45 9.75Q679.45 11.03 679.81 12.01L679.81 12.01L679.81 12.01Q680.18 13.00 680.89 13.57L680.89 13.57L680.89 13.57Q681.61 14.14 682.59 14.14L682.59 14.14L682.59 14.14Q683.16 14.14 683.66 13.92L683.66 13.92L683.66 13.92Q684.15 13.70 684.49 13.33L684.49 13.33L684.49 13.33Q684.84 12.96 685.08 12.49L685.08 12.49L685.08 12.49Q685.32 12.01 685.44 11.50L685.44 11.50L685.44 11.50Q685.56 10.99 685.56 10.48L685.56 10.48L685.56 10.48Q685.56 8.50 684.70 7.29L684.70 7.29L684.70 7.29Q683.85 6.07 682.40 6.07L682.40 6.07L682.40 6.07Q681.82 6.07 681.33 6.28L681.33 6.28L681.33 6.28Q680.84 6.49 680.50 6.85L680.50 6.85L680.50 6.85Q680.16 7.21 679.92 7.69L679.92 7.69L679.92 7.69Q679.68 8.16 679.56 8.69L679.56 8.69L679.56 8.69Q679.45 9.21 679.45 9.75ZM678.70 10.16L678.70 10.16L678.70 10.16Q678.70 8.16 679.80 6.92L679.80 6.92L679.80 6.92Q680.89 5.69 682.73 5.69L682.73 5.69L682.73 5.69Q683.87 5.69 684.68 6.27L684.68 6.27L684.68 6.27Q685.50 6.86 685.90 7.84L685.90 7.84L685.90 7.84Q686.29 8.83 686.29 10.11L686.29 10.11L686.29 10.11Q686.29 10.75 686.14 11.38L686.14 11.38L686.14 11.38Q685.99 12.00 685.67 12.58L685.67 12.58L685.67 12.58Q685.34 13.17 684.88 13.61L684.88 13.61L684.88 13.61Q684.42 14.05 683.74 14.32L683.74 14.32L683.74 14.32Q683.07 14.58 682.26 14.58L682.26 14.58L682.26 14.58Q681.21 14.58 680.38 13.98L680.38 13.98L680.38 13.98Q679.56 13.37 679.13 12.37L679.13 12.37L679.13 12.37Q678.70 11.37 678.70 10.16ZM694.80 9.75L694.80 9.75L694.80 9.75Q694.80 11.03 695.16 12.01L695.16 12.01L695.16 12.01Q695.52 13.00 696.24 13.57L696.24 13.57L696.24 13.57Q696.96 14.14 697.94 14.14L697.94 14.14L697.94 14.14Q698.51 14.14 699.00 13.92L699.00 13.92L699.00 13.92Q699.49 13.70 699.84 13.33L699.84 13.33L699.84 13.33Q700.18 12.96 700.43 12.49L700.43 12.49L700.43 12.49Q700.67 12.01 700.79 11.50L700.79 11.50L700.79 11.50Q700.90 10.99 700.90 10.48L700.90 10.48L700.90 10.48Q700.90 8.50 700.05 7.29L700.05 7.29L700.05 7.29Q699.20 6.07 697.75 6.07L697.75 6.07L697.75 6.07Q697.17 6.07 696.68 6.28L696.68 6.28L696.68 6.28Q696.19 6.49 695.84 6.85L695.84 6.85L695.84 6.85Q695.50 7.21 695.26 7.69L695.26 7.69L695.26 7.69Q695.02 8.16 694.91 8.69L694.91 8.69L694.91 8.69Q694.80 9.21 694.80 9.75ZM694.05 10.16L694.05 10.16L694.05 10.16Q694.05 8.16 695.14 6.92L695.14 6.92L695.14 6.92Q696.24 5.69 698.08 5.69L698.08 5.69L698.08 5.69Q699.21 5.69 700.03 6.27L700.03 6.27L700.03 6.27Q700.85 6.86 701.24 7.84L701.24 7.84L701.24 7.84Q701.64 8.83 701.64 10.11L701.64 10.11L701.64 10.11Q701.64 10.75 701.49 11.38L701.49 11.38L701.49 11.38Q701.34 12.00 701.02 12.58L701.02 12.58L701.02 12.58Q700.69 13.17 700.23 13.61L700.23 13.61L700.23 13.61Q699.77 14.05 699.09 14.32L699.09 14.32L699.09 14.32Q698.41 14.58 697.61 14.58L697.61 14.58L697.61 14.58Q696.55 14.58 695.73 13.98L695.73 13.98L695.73 13.98Q694.91 13.37 694.48 12.37L694.48 12.37L694.48 12.37Q694.05 11.37 694.05 10.16ZM715.53 14.40L709.38 14.40L709.41 14.11L710.57 13.90L710.57 6.34L709.39 6.17L709.42 5.90L712.53 5.90L712.50 6.17L711.30 6.32L711.30 14.03L714.92 14.03L715.45 12.09L715.75 12.14L715.53 14.40ZM725.36 6.15L725.36 9.75L727.48 9.75L727.48 9.75Q727.94 9.45 728.27 9.01L728.27 9.01L728.27 9.01Q728.61 8.57 728.61 8.02L728.61 8.02L728.61 8.02Q728.61 7.08 727.97 6.59L727.97 6.59L727.97 6.59Q727.33 6.11 726.20 6.11L726.20 6.11L726.20 6.11Q725.55 6.11 725.36 6.15L725.36 6.15ZM725.36 10.08L725.36 14.03L727.04 14.03L727.04 14.03Q727.68 14.03 728.14 13.85L728.14 13.85L728.14 13.85Q728.59 13.68 728.84 13.38L728.84 13.38L728.84 13.38Q729.08 13.08 729.19 12.74L729.19 12.74L729.19 12.74Q729.30 12.41 729.30 12.02L729.30 12.02L729.30 12.02Q729.30 11.68 729.19 11.36L729.19 11.36L729.19 11.36Q729.08 11.04 728.84 10.74L728.84 10.74L728.84 10.74Q728.60 10.45 728.16 10.26L728.16 10.26L728.16 10.26Q727.71 10.08 727.11 10.08L727.11 10.08L725.36 10.08ZM726.37 14.40L723.46 14.40L723.52 14.11L724.67 13.90L724.67 6.51L723.50 6.36L723.56 6.12L723.56 6.12Q723.69 6.10 724.12 6.03L724.12 6.03L724.12 6.03Q724.56 5.96 724.74 5.94L724.74 5.94L724.74 5.94Q724.91 5.91 725.27 5.87L725.27 5.87L725.27 5.87Q725.62 5.83 725.93 5.82L725.93 5.82L725.93 5.82Q726.24 5.80 726.59 5.80L726.59 5.80L726.59 5.80Q727.88 5.80 728.59 6.38L728.59 6.38L728.59 6.38Q729.31 6.96 729.31 7.79L729.31 7.79L729.31 7.79Q729.31 8.98 727.89 9.76L727.89 9.76L727.89 9.80L727.89 9.80Q728.88 9.86 729.45 10.46L729.45 10.46L729.45 10.46Q730.02 11.05 730.02 11.80L730.02 11.80L730.02 11.80Q730.02 12.22 729.92 12.58L729.92 12.58L729.92 12.58Q729.82 12.95 729.56 13.29L729.56 13.29L729.56 13.29Q729.29 13.63 728.89 13.87L728.89 13.87L728.89 13.87Q728.49 14.11 727.84 14.25L727.84 14.25L727.84 14.25Q727.19 14.40 726.37 14.40L726.37 14.40ZM738.51 9.75L738.51 9.75L738.51 9.75Q738.51 11.03 738.88 12.01L738.88 12.01L738.88 12.01Q739.24 13.00 739.96 13.57L739.96 13.57L739.96 13.57Q740.67 14.14 741.65 14.14L741.65 14.14L741.65 14.14Q742.23 14.14 742.72 13.92L742.72 13.92L742.72 13.92Q743.21 13.70 743.56 13.33L743.56 13.33L743.56 13.33Q743.90 12.96 744.14 12.49L744.14 12.49L744.14 12.49Q744.39 12.01 744.50 11.50L744.50 11.50L744.50 11.50Q744.62 10.99 744.62 10.48L744.62 10.48L744.62 10.48Q744.62 8.50 743.77 7.29L743.77 7.29L743.77 7.29Q742.92 6.07 741.47 6.07L741.47 6.07L741.47 6.07Q740.89 6.07 740.39 6.28L740.39 6.28L740.39 6.28Q739.90 6.49 739.56 6.85L739.56 6.85L739.56 6.85Q739.22 7.21 738.98 7.69L738.98 7.69L738.98 7.69Q738.74 8.16 738.63 8.69L738.63 8.69L738.63 8.69Q738.51 9.21 738.51 9.75ZM737.76 10.16L737.76 10.16L737.76 10.16Q737.76 8.16 738.86 6.92L738.86 6.92L738.86 6.92Q739.96 5.69 741.79 5.69L741.79 5.69L741.79 5.69Q742.93 5.69 743.75 6.27L743.75 6.27L743.75 6.27Q744.56 6.86 744.96 7.84L744.96 7.84L744.96 7.84Q745.36 8.83 745.36 10.11L745.36 10.11L745.36 10.11Q745.36 10.75 745.21 11.38L745.21 11.38L745.21 11.38Q745.06 12.00 744.73 12.58L744.73 12.58L744.73 12.58Q744.41 13.17 743.94 13.61L743.94 13.61L743.94 13.61Q743.48 14.05 742.81 14.32L742.81 14.32L742.81 14.32Q742.13 14.58 741.32 14.58L741.32 14.58L741.32 14.58Q740.27 14.58 739.45 13.98L739.45 13.98L739.45 13.98Q738.62 13.37 738.19 12.37L738.19 12.37L738.19 12.37Q737.76 11.37 737.76 10.16ZM755.58 14.40L753.08 14.40L753.12 14.15L753.97 13.96L756.81 10.12L754.15 6.30L753.22 6.11L753.25 5.89L756.12 5.89L756.09 6.11L755.02 6.32L757.29 9.59L759.73 6.30L758.56 6.15L758.59 5.89L761.11 5.89L761.11 6.14L760.25 6.28L757.54 9.95L760.37 14.03L761.30 14.15L761.26 14.40L758.35 14.40L758.38 14.21L759.49 13.99L757.07 10.49L754.51 13.99L755.64 14.11L755.58 14.40Z"></path></g></svg>